<svg width="21" height="20" viewBox="0 0 21 20" fill="none" xmlns="http://www.w3.org/2000/svg">
<path d="M18.0833 0.25H2.91667C1.71958 0.25 0.75 1.21958 0.75 2.41667V17.5833C0.75 18.7804 1.71958 19.75 2.91667 19.75H18.0833C19.2804 19.75 20.25 18.7804 20.25 17.5833V2.41667C20.25 1.21958 19.2804 0.25 18.0833 0.25ZM4 3.5H9.41667V8.91667H4V3.5ZM8.875 17.5833C7.38 17.5833 6.16667 16.37 6.16667 14.875C6.16667 13.38 7.38 12.1667 8.875 12.1667C10.37 12.1667 11.5833 13.38 11.5833 14.875C11.5833 16.37 10.37 17.5833 8.875 17.5833ZM12.125 11.0833L15.375 5.66667L18.625 11.0833H12.125Z" fill="#175CD3"/>
</svg>
