<svg width="21" height="20" viewBox="0 0 21 20" fill="none" xmlns="http://www.w3.org/2000/svg">
<path fill-rule="evenodd" clip-rule="evenodd" d="M12.543 5.293C12.7305 5.10553 12.9848 5.00021 13.25 5.00021C13.5152 5.00021 13.7695 5.10553 13.957 5.293L17.957 9.293C18.1445 9.48053 18.2498 9.73484 18.2498 10C18.2498 10.2652 18.1445 10.5195 17.957 10.707L13.957 14.707C13.7684 14.8892 13.5158 14.99 13.2536 14.9877C12.9914 14.9854 12.7406 14.8802 12.5552 14.6948C12.3698 14.5094 12.2646 14.2586 12.2623 13.9964C12.26 13.7342 12.3608 13.4816 12.543 13.293L14.836 11H3.25C2.98478 11 2.73043 10.8946 2.54289 10.7071C2.35536 10.5196 2.25 10.2652 2.25 10C2.25 9.73478 2.35536 9.48043 2.54289 9.29289C2.73043 9.10536 2.98478 9 3.25 9H14.836L12.543 6.707C12.3555 6.51947 12.2502 6.26516 12.2502 6C12.2502 5.73484 12.3555 5.48053 12.543 5.293Z" fill="#439687"/>
</svg>
