<svg width="23" height="22" viewBox="0 0 23 22" fill="none" xmlns="http://www.w3.org/2000/svg">
<g clip-path="url(#clip0_176_5246)">
<path d="M20.4079 8.02443L20.7498 7.6825C21.041 7.39124 21.041 6.91902 20.7498 6.62783C20.4584 6.33665 19.9864 6.33665 19.6951 6.62783L19.3447 6.97828L18.6718 4.2865C18.4302 3.32065 17.4612 2.56406 16.4657 2.56406H6.03422C5.03874 2.56406 4.0697 3.32065 3.82815 4.28657L3.15526 6.97828L2.80489 6.62783C2.51356 6.33665 2.04148 6.33665 1.75022 6.62783C1.45896 6.91909 1.45896 7.39132 1.75022 7.6825L2.09207 8.02443C1.0023 8.55865 0.25 9.67924 0.25 10.9725V13.592C0.25 14.6492 0.753037 15.5905 1.5317 16.191V17.498C1.5317 18.5672 2.40148 19.4369 3.47074 19.4369H4.9297C5.99889 19.4369 6.86867 18.5672 6.86867 17.498V16.8734H15.6313V17.498C15.6313 18.5672 16.501 19.4369 17.5702 19.4369H19.0292C20.0984 19.4369 20.9682 18.5672 20.9682 17.498V16.1912C21.7469 15.5907 22.25 14.6493 22.25 13.592V10.9725C22.25 9.67924 21.4977 8.55865 20.4079 8.02443ZM4.57215 7.46013L5.27511 4.64835C5.35126 4.34361 5.72022 4.05554 6.03422 4.05554H16.4656C16.7796 4.05554 17.1486 4.34361 17.2247 4.64835L17.9278 7.46021C17.9472 7.53821 17.9433 7.60458 17.9173 7.63791C17.8912 7.67124 17.8277 7.69117 17.7474 7.69117H4.75244C4.67215 7.69117 4.60867 7.67124 4.58252 7.63791C4.55659 7.60458 4.55274 7.53821 4.57215 7.46013ZM1.74156 10.9725C1.74156 9.98569 2.54452 9.18272 3.53133 9.18272H18.9687C19.9555 9.18272 20.7584 9.98569 20.7584 10.9725V13.592C20.7584 14.5789 19.9555 15.3818 18.9687 15.3818H3.53133C2.54452 15.3818 1.74156 14.5789 1.74156 13.592V10.9725ZM5.37711 17.498C5.37711 17.7404 5.17215 17.9454 4.9297 17.9454H3.47067C3.22815 17.9454 3.02319 17.7404 3.02319 17.498V16.8339C3.18889 16.8598 3.35844 16.8734 3.53126 16.8734H5.37704V17.498H5.37711ZM19.4767 17.498C19.4767 17.7404 19.2717 17.9454 19.0292 17.9454H17.5702C17.3278 17.9454 17.1228 17.7404 17.1228 17.498V16.8734H18.9687C19.1415 16.8734 19.311 16.8597 19.4767 16.8339V17.498H19.4767Z" fill="#439687"/>
<path d="M8.68735 13.028H13.8147C14.2265 13.028 14.5604 12.6941 14.5604 12.2822C14.5604 11.8704 14.2265 11.5365 13.8147 11.5365H8.68735C8.2755 11.5365 7.94165 11.8705 7.94165 12.2822C7.94158 12.6941 8.2755 13.028 8.68735 13.028Z" fill="#439687"/>
<path d="M4.84132 14.3096C5.95932 14.3096 6.86888 13.4001 6.86888 12.2821C6.86888 11.1641 5.95932 10.2546 4.84132 10.2546C3.72332 10.2546 2.81384 11.1641 2.81384 12.2821C2.81377 13.4 3.72332 14.3096 4.84132 14.3096ZM4.84132 11.746C5.13688 11.746 5.37732 11.9865 5.37732 12.282C5.37732 12.5776 5.13688 12.818 4.84132 12.818C4.54584 12.818 4.30532 12.5776 4.30532 12.282C4.30525 11.9865 4.54577 11.746 4.84132 11.746Z" fill="#439687"/>
<path d="M17.6582 14.3096C18.7762 14.3096 19.6857 13.4001 19.6857 12.2821C19.6857 11.1641 18.7762 10.2546 17.6582 10.2546C16.5402 10.2546 15.6306 11.1641 15.6306 12.2821C15.6305 13.4 16.5402 14.3096 17.6582 14.3096ZM17.6582 11.746C17.9537 11.746 18.1942 11.9865 18.1942 12.282C18.1942 12.5776 17.9537 12.818 17.6582 12.818C17.3626 12.818 17.1222 12.5776 17.1222 12.282C17.1221 11.9865 17.3625 11.746 17.6582 11.746Z" fill="#439687"/>
</g>
<defs>
<clipPath id="clip0_176_5246">
<rect width="22" height="22" fill="white" transform="translate(0.25)"/>
</clipPath>
</defs>
</svg>
