<svg width="50" height="30" viewBox="0 0 50 30" fill="none" xmlns="http://www.w3.org/2000/svg">
<path d="M42.3563 5.29883C42.3022 5.29883 39.4136 5.29883 34.783 7.57222L33.9932 7.97402C33.0664 8.46166 32.0783 9.0386 31.036 9.72199C30.8665 9.83188 30.3653 10.1238 30.0912 10.3436C32.5291 12.7062 33.9824 14.2928 34.9597 15.4261C35.9371 16.5593 36.5249 17.3526 37.3183 18.2524C44.311 26.1509 57.6508 15.797 42.3563 5.29883Z" fill="#439687"/>
<path d="M31.0468 9.72546C32.089 9.03863 33.0771 8.46513 34.004 7.97749L34.7938 7.57569H34.7216L34.7974 7.55852C39.4099 5.292 42.2985 5.28513 42.3707 5.28513C42.349 5.1821 42.093 5.16493 41.0471 4.4472C40.4461 4.02372 39.8133 3.64266 39.1538 3.30707C38.0755 2.58247 35.5619 1.71707 35.5619 1.71707H35.5331C32.3675 0.678758 29.0558 0.0999239 25.7094 0C23.6194 0.0155406 21.5373 0.245816 19.4993 0.686826L19.3478 0.721168C16.7152 1.2775 13.3793 3.01517 13.3793 3.01517C11.5992 3.90835 9.91743 4.96906 8.3593 6.18144L8.28717 6.23982C7.72098 6.69656 3.89826 9.87313 1.363 14.207V14.2242C1.22625 14.439 1.10573 14.6627 1.00237 14.8938C1.00237 14.8938 1.00237 14.8938 1.03483 14.8938C0.998764 14.9694 0.959094 15.0415 0.923031 15.1205C0.886968 15.1995 0.832873 15.3128 0.789597 15.4124C0.263865 16.6231 -0.00457345 17.921 -0.000191343 19.2311C-0.000191343 24.7257 4.77821 29.0424 10.57 29.0424C18.2298 29.0424 20.3071 21.635 24.9485 15.4261C26.4378 13.3382 28.3179 11.5292 30.495 10.0895C30.5093 10.0784 30.525 10.0691 30.5419 10.062L31.0468 9.72546Z" fill="#4FBFA3"/>
</svg>
