<svg width="30" height="30" viewBox="0 0 30 30" fill="none" xmlns="http://www.w3.org/2000/svg">
<g clip-path="url(#clip0_92_5437)">
<path d="M26.7099 10.6331L27.1629 10.18C27.5488 9.79406 27.5488 9.16833 27.1629 8.78249C26.7768 8.39665 26.1513 8.39665 25.7654 8.78249L25.3011 9.24685L24.4094 5.68006C24.0893 4.40024 22.8053 3.39771 21.4862 3.39771H7.66376C6.34468 3.39771 5.06064 4.40024 4.74056 5.68016L3.84894 9.24685L3.38467 8.78249C2.99863 8.39665 2.3731 8.39665 1.98717 8.78249C1.60123 9.16843 1.60123 9.79416 1.98717 10.18L2.44014 10.6331C0.996112 11.341 -0.000732422 12.8258 -0.000732422 14.5395V18.0105C-0.000732422 19.4113 0.665826 20.6586 1.69761 21.4544V23.1862C1.69761 24.6029 2.85013 25.7554 4.26697 25.7554H6.2002C7.61694 25.7554 8.76946 24.6029 8.76946 23.1862V22.3586H20.3805V23.1862C20.3805 24.6029 21.533 25.7554 22.9498 25.7554H24.883C26.2997 25.7554 27.4523 24.6029 27.4523 23.1862V21.4546C28.4841 20.6588 29.1508 19.4115 29.1508 18.0105V14.5395C29.1508 12.8258 28.1539 11.341 26.7099 10.6331ZM5.72641 9.88534L6.65789 6.15954C6.75879 5.75574 7.24769 5.37402 7.66376 5.37402H21.4861C21.9022 5.37402 22.3911 5.75574 22.492 6.15954L23.4235 9.88544C23.4493 9.98879 23.4442 10.0767 23.4097 10.1209C23.3751 10.1651 23.2909 10.1915 23.1845 10.1915H5.96532C5.85892 10.1915 5.7748 10.1651 5.74015 10.1209C5.7058 10.0767 5.7007 9.98879 5.72641 9.88534ZM1.97568 14.5395C1.97568 13.2319 3.03966 12.1679 4.34726 12.1679H24.8028C26.1104 12.1679 27.1744 13.2319 27.1744 14.5395V18.0105C27.1744 19.3182 26.1104 20.3821 24.8028 20.3821H4.34726C3.03966 20.3821 1.97568 19.3182 1.97568 18.0105V14.5395ZM6.79304 23.1862C6.79304 23.5074 6.52145 23.779 6.2002 23.779H4.26687C3.94552 23.779 3.67393 23.5074 3.67393 23.1862V22.3062C3.8935 22.3405 4.11817 22.3586 4.34716 22.3586H6.79294V23.1862H6.79304ZM25.4759 23.1862C25.4759 23.5074 25.2043 23.779 24.883 23.779H22.9498C22.6285 23.779 22.3569 23.5074 22.3569 23.1862V22.3586H24.8029C25.0318 22.3586 25.2565 22.3404 25.476 22.3062V23.1862H25.4759Z" fill="#4AA695"/>
<path d="M11.1778 17.2632H17.9719C18.5176 17.2632 18.96 16.8207 18.96 16.275C18.96 15.7292 18.5175 15.2869 17.9719 15.2869H11.1778C10.6321 15.2869 10.1897 15.7293 10.1897 16.275C10.1896 16.8207 10.6321 17.2632 11.1778 17.2632Z" fill="#4AA695"/>
<path d="M6.0823 18.9613C7.56373 18.9613 8.76895 17.7561 8.76895 16.2747C8.76895 14.7933 7.56373 13.5881 6.0823 13.5881C4.60088 13.5881 3.39575 14.7933 3.39575 16.2747C3.39565 17.756 4.60088 18.9613 6.0823 18.9613ZM6.0823 15.5644C6.47394 15.5644 6.79254 15.8831 6.79254 16.2746C6.79254 16.6662 6.47394 16.9848 6.0823 16.9848C5.69077 16.9848 5.37207 16.6662 5.37207 16.2746C5.37197 15.8831 5.69067 15.5644 6.0823 15.5644Z" fill="#4AA695"/>
<path d="M23.0668 18.9613C24.5482 18.9613 25.7533 17.7561 25.7533 16.2747C25.7533 14.7933 24.5482 13.5881 23.0668 13.5881C21.5854 13.5881 20.3801 14.7933 20.3801 16.2747C20.38 17.756 21.5854 18.9613 23.0668 18.9613ZM23.0668 15.5644C23.4583 15.5644 23.777 15.8831 23.777 16.2746C23.777 16.6662 23.4583 16.9848 23.0668 16.9848C22.6751 16.9848 22.3565 16.6662 22.3565 16.2746C22.3564 15.8831 22.675 15.5644 23.0668 15.5644Z" fill="#4AA695"/>
</g>
<defs>
<clipPath id="clip0_92_5437">
<rect width="29.1515" height="29.1515" fill="white"/>
</clipPath>
</defs>
</svg>
