<svg width="82" height="80" viewBox="0 0 82 80" fill="none" xmlns="http://www.w3.org/2000/svg">
<ellipse cx="40.75" cy="40" rx="40.5" ry="40" fill="#1D2939"/>
<path d="M56.6468 43.1995V28.0148C56.6468 26.9037 55.7428 26.0002 54.6322 26.0002L28.2648 26C27.154 26 26.25 26.9038 26.25 28.0148V46.2612C26.25 47.3723 27.154 48.2758 28.2646 48.2758H54.632C55.7428 48.2758 56.6466 47.372 56.6466 46.2612V43.2483C56.6475 43.2397 56.652 43.2325 56.652 43.2239C56.652 43.2154 56.6475 43.2084 56.647 43.1998L56.6468 43.1995ZM41.957 45.9763H40.9478C40.6856 45.9763 40.4729 45.7638 40.4729 45.5013C40.4729 45.2389 40.6856 45.0264 40.9478 45.0264H41.957C42.2193 45.0264 42.432 45.2389 42.432 45.5013C42.432 45.7638 42.2193 45.9763 41.957 45.9763ZM55.6968 42.7486H27.2004V28.0145C27.2004 27.4277 27.678 26.9498 28.265 26.9498H54.6324C55.2193 26.9498 55.697 27.4277 55.697 28.0145L55.6968 42.7486Z" fill="#7AD06D"/>
<path d="M49.0861 54.0489H47.6742C45.976 52.7495 44.857 50.7745 44.3877 49.2225H38.5065C38.0419 50.7747 36.9229 52.7495 35.2247 54.0489H33.8169C33.5546 54.0489 33.3419 54.2613 33.3419 54.5238C33.3419 54.7863 33.5546 54.9988 33.8169 54.9988H49.0858C49.348 54.9988 49.5607 54.7863 49.5607 54.5238C49.5607 54.2613 49.348 54.0489 49.0858 54.0489H49.0861Z" fill="#7AD06D"/>
<path d="M49.8373 35.0677L51.6904 34.0508C51.856 33.9598 51.9517 33.78 51.9351 33.5921C51.9182 33.4042 51.7918 33.2437 51.6129 33.1838L44.0024 30.6334C43.8322 30.5764 43.6441 30.6199 43.5163 30.747C43.389 30.8736 43.3437 31.0615 43.4001 31.2323L45.9036 38.8451C45.9626 39.0252 46.123 39.1527 46.3116 39.1698C46.5002 39.1878 46.6811 39.0905 46.7717 38.924L47.7383 37.1523L50.5616 39.937C50.6542 40.0285 50.7745 40.0738 50.895 40.0738C51.0165 40.0738 51.1382 40.0273 51.231 39.9345L52.6316 38.5339C52.8172 38.3483 52.8172 38.0477 52.6316 37.8622L49.8373 35.0677Z" fill="#7AD06D"/>
<path d="M39.4189 29.163H29.7895C29.5273 29.163 29.3146 29.3754 29.3146 29.6379V33.1464C29.3146 33.4089 29.5273 33.6213 29.7895 33.6213H39.4189C39.6812 33.6213 39.8939 33.4089 39.8939 33.1464V29.6379C39.8939 29.3754 39.6812 29.163 39.4189 29.163Z" fill="#7AD06D"/>
<path d="M39.1814 34.9968H29.6807C29.4184 34.9968 29.2057 35.2093 29.2057 35.4718C29.2057 35.7343 29.4184 35.9468 29.6807 35.9468H39.1814C39.4437 35.9468 39.6564 35.7343 39.6564 35.4718C39.6564 35.2093 39.4437 34.9968 39.1814 34.9968Z" fill="#7AD06D"/>
<path d="M39.1814 37.3713H29.6807C29.4184 37.3713 29.2057 37.5838 29.2057 37.8463C29.2057 38.1088 29.4184 38.3213 29.6807 38.3213H39.1814C39.4437 38.3213 39.6564 38.1088 39.6564 37.8463C39.6564 37.5838 39.4437 37.3713 39.1814 37.3713Z" fill="#7AD06D"/>
<path d="M39.1814 39.7472H29.6807C29.4184 39.7472 29.2057 39.9597 29.2057 40.2222C29.2057 40.4847 29.4184 40.6971 29.6807 40.6971H39.1814C39.4437 40.6971 39.6564 40.4847 39.6564 40.2222C39.6564 39.9594 39.4437 39.7472 39.1814 39.7472Z" fill="#7AD06D"/>
</svg>
