<svg width="24" height="24" viewBox="0 0 24 24" fill="none" xmlns="http://www.w3.org/2000/svg">
<g clip-path="url(#clip0_92_5349)">
<path d="M4 6H22V4H4C2.9 4 2 4.9 2 6V17H0V20H14V17H4V6ZM23 8H17C16.45 8 16 8.45 16 9V19C16 19.55 16.45 20 17 20H23C23.55 20 24 19.55 24 19V9C24 8.45 23.55 8 23 8ZM22 17H18V10H22V17Z" fill="#7A5AF8"/>
</g>
<rect x="18" y="10" width="4" height="7" fill="#FEC84B"/>
<path d="M21 5H4C3.44772 5 3 5.44772 3 6V17.5" stroke="#7A5AF8" stroke-width="2" stroke-linecap="square"/>
<rect y="17" width="14" height="3" fill="#7A5AF8"/>
<rect x="5" y="7" width="9" height="9" fill="#FEC84B"/>
<defs>
<clipPath id="clip0_92_5349">
<rect width="24" height="24" fill="white"/>
</clipPath>
</defs>
</svg>
