<svg width="32" height="32" viewBox="0 0 32 32" fill="none" xmlns="http://www.w3.org/2000/svg">
<path d="M29.47 15.27C29.6435 14.5973 29.7275 13.9046 29.72 13.21C29.72 11.0882 28.8772 9.0534 27.3769 7.55311C25.8766 6.05282 23.8418 5.20996 21.72 5.20996H21.63C19.5138 5.22418 17.4894 6.07638 16 7.57996C14.4613 6.11546 12.4143 5.30525 10.29 5.31996C9.07052 5.33486 7.86984 5.62294 6.77632 6.16302C5.6828 6.70309 4.72424 7.48142 3.97116 8.44076C3.21808 9.4001 2.68962 10.5161 2.42465 11.7065C2.15968 12.897 2.16494 14.1318 2.44004 15.32C2.30618 15.4128 2.19703 15.537 2.12209 15.6816C2.04715 15.8263 2.00869 15.9871 2.01004 16.15C2.01004 16.4152 2.1154 16.6695 2.30294 16.8571C2.49047 17.0446 2.74483 17.15 3.01004 17.15H3.06004C3.46471 17.9577 3.99838 18.694 4.64004 19.33L5.07004 19.72C5.11128 19.7778 5.15818 19.8314 5.21004 19.88L15.43 29.88C15.6163 30.0647 15.8677 30.1689 16.13 30.17C16.2624 30.1694 16.3932 30.1426 16.5151 30.0911C16.637 30.0396 16.7474 29.9644 16.84 29.87L26.84 19.64C26.9475 19.529 27.0294 19.3959 27.08 19.25L27.4 18.94C27.9226 18.4051 28.367 17.7991 28.72 17.14H29C29.2653 17.14 29.5196 17.0346 29.7072 16.8471C29.8947 16.6595 30 16.4052 30 16.14C29.9978 15.9608 29.9474 15.7855 29.8541 15.6324C29.7609 15.4794 29.6282 15.3542 29.47 15.27ZM6.00004 9.17996C6.56524 8.60255 7.23867 8.14216 7.98187 7.82512C8.72506 7.50808 9.52345 7.3406 10.3314 7.33224C11.1393 7.32388 11.941 7.47481 12.6906 7.77641C13.4402 8.07801 14.123 8.52436 14.7 9.08996C14.8754 9.25867 15.0391 9.43909 15.19 9.62996C15.2347 9.69116 15.2849 9.74807 15.34 9.79996C15.544 9.97624 15.8075 10.0682 16.0769 10.057C16.3463 10.0459 16.6013 9.93249 16.79 9.73996L16.9 9.60996C17.0376 9.4111 17.1951 9.22681 17.37 9.05996C17.9252 8.48822 18.5888 8.03281 19.3219 7.72032C20.0551 7.40784 20.8431 7.24454 21.64 7.23996H21.7C22.6524 7.2322 23.593 7.45127 24.4439 7.87907C25.2949 8.30686 26.0318 8.93109 26.5936 9.70012C27.1555 10.4692 27.5262 11.3609 27.6752 12.3016C27.8241 13.2423 27.7469 14.205 27.45 15.11L18.26 15C18.0638 15.0001 17.8718 15.058 17.7083 15.1665C17.5447 15.275 17.4166 15.4292 17.34 15.61L17 14.28C16.9583 14.1281 16.8813 13.9883 16.7753 13.8719C16.6693 13.7555 16.5373 13.6657 16.39 13.61C16.2406 13.5544 16.08 13.5354 15.9217 13.5546C15.7634 13.5737 15.612 13.6304 15.48 13.72L14.22 14.57L12.82 10.57C12.7598 10.3973 12.6533 10.2445 12.5123 10.1281C12.3712 10.0118 12.201 9.93632 12.02 9.90996C11.8326 9.87426 11.6388 9.89295 11.4616 9.96383C11.2844 10.0347 11.1312 10.1548 11.02 10.31L7.57004 15L4.45004 15.08C4.17089 14.0468 4.1671 12.9586 4.43903 11.9235C4.71096 10.8884 5.24914 9.94252 6.00004 9.17996ZM26 17.53C25.8306 17.7083 25.6467 17.8722 25.45 18.02C25.2505 18.165 25.1116 18.3787 25.06 18.62L16.13 27.74L6.84004 18.65C6.77481 18.5218 6.68272 18.4093 6.57004 18.32C6.38862 18.1871 6.21808 18.04 6.06004 17.88C5.81202 17.6314 5.58772 17.3602 5.39004 17.07L8.11004 17C8.26274 16.9957 8.41243 16.9566 8.54764 16.8855C8.68285 16.8144 8.79998 16.7133 8.89004 16.59L11.52 13L12.72 16.45C12.7705 16.5947 12.8536 16.7258 12.9628 16.8333C13.0721 16.9408 13.2045 17.0218 13.35 17.07C13.4961 17.1191 13.6515 17.1338 13.8041 17.113C13.9567 17.0922 14.1025 17.0364 14.23 16.95L15.41 16.15L16.2 19.05C16.255 19.255 16.3738 19.4372 16.5392 19.5702C16.7046 19.7033 16.908 19.7802 17.12 19.79H17.17C17.3715 19.7894 17.5681 19.7279 17.734 19.6137C17.8999 19.4996 18.0275 19.3379 18.1 19.15L18.93 17L26.34 17.09C26.2357 17.2434 26.1222 17.3903 26 17.53Z" fill="#4AA695"/>
</svg>
