<svg width="29" height="22" viewBox="0 0 29 22" fill="none" xmlns="http://www.w3.org/2000/svg">
<path d="M24.6803 5.28864H21.1546V0.88144C21.1546 0.647668 21.0617 0.42347 20.8964 0.258168C20.7311 0.0928659 20.5069 0 20.2731 0H0.88144C0.647668 0 0.42347 0.0928659 0.258168 0.258168C0.0928657 0.42347 0 0.647668 0 0.88144V16.7474C0 16.9811 0.0928657 17.2053 0.258168 17.3706C0.42347 17.5359 0.647668 17.6288 0.88144 17.6288H1.76288V1.76288H19.3917V12.0757C19.8411 11.9611 20.3029 11.9019 20.7667 11.8994C20.8989 11.8994 21.0224 11.8994 21.1546 11.8994V7.05152H24.6803C25.1479 7.05152 25.5963 7.23725 25.9269 7.56786C26.2575 7.89846 26.4432 8.34686 26.4432 8.8144V9.69584H22.9174V11.4587H26.4432V15.8659H24.3278C24.0185 15.1476 23.5056 14.5356 22.8523 14.1057C22.1991 13.6757 21.4342 13.4465 20.6521 13.4465C19.8701 13.4465 19.1052 13.6757 18.4519 14.1057C17.7987 14.5356 17.2858 15.1476 16.9765 15.8659H10.9563C10.6529 15.1424 10.1418 14.525 9.48753 14.092C8.83327 13.6589 8.06528 13.4297 7.2807 13.4331C6.53524 13.4496 5.8105 13.6816 5.19403 14.101C4.57756 14.5205 4.09575 15.1095 3.8068 15.7968C3.51786 16.4842 3.43415 17.2406 3.56578 17.9745C3.69741 18.7084 4.03876 19.3885 4.54858 19.9326C5.0584 20.4767 5.71488 20.8616 6.43869 21.0406C7.16251 21.2197 7.9227 21.1853 8.6274 20.9417C9.33211 20.698 9.95118 20.2555 10.4098 19.6676C10.8685 19.0797 11.147 18.3716 11.2119 17.6288H16.7474C16.8594 18.5929 17.3217 19.4822 18.0465 20.1276C18.7713 20.7731 19.708 21.1297 20.6786 21.1297C21.6491 21.1297 22.5859 20.7731 23.3107 20.1276C24.0355 19.4822 24.4978 18.5929 24.6098 17.6288H27.3246C27.5584 17.6288 27.7826 17.5359 27.9479 17.3706C28.1132 17.2053 28.2061 16.9811 28.2061 16.7474V8.8144C28.2061 7.87931 27.8346 6.98252 27.1734 6.32131C26.5122 5.6601 25.6154 5.28864 24.6803 5.28864ZM7.2807 19.3917C6.99436 19.4103 6.70725 19.3699 6.43713 19.2731C6.16701 19.1763 5.91962 19.0252 5.71025 18.829C5.50089 18.6327 5.334 18.3957 5.21991 18.1324C5.10582 17.8691 5.04696 17.5852 5.04696 17.2983C5.04696 17.0113 5.10582 16.7274 5.21991 16.4642C5.334 16.2009 5.50089 15.9638 5.71025 15.7676C5.91962 15.5714 6.16701 15.4202 6.43713 15.3234C6.70725 15.2266 6.99436 15.1863 7.2807 15.2048C7.56703 15.1863 7.85414 15.2266 8.12426 15.3234C8.39438 15.4202 8.64177 15.5714 8.85114 15.7676C9.0605 15.9638 9.22739 16.2009 9.34148 16.4642C9.45557 16.7274 9.51443 17.0113 9.51443 17.2983C9.51443 17.5852 9.45557 17.8691 9.34148 18.1324C9.22739 18.3957 9.0605 18.6327 8.85114 18.829C8.64177 19.0252 8.39438 19.1763 8.12426 19.2731C7.85414 19.3699 7.56703 19.4103 7.2807 19.3917ZM20.6521 19.3917C20.242 19.371 19.847 19.2303 19.516 18.9872C19.185 18.7441 18.9327 18.4092 18.7903 18.024C18.6479 17.6388 18.6216 17.2203 18.7149 16.8204C18.8081 16.4204 19.0166 16.0566 19.3147 15.7741C19.6127 15.4916 19.9871 15.3027 20.3914 15.231C20.7958 15.1592 21.2123 15.2077 21.5893 15.3705C21.9664 15.5332 22.2874 15.8031 22.5125 16.1466C22.7376 16.49 22.857 16.892 22.8557 17.3027C22.8396 17.8716 22.5986 18.4109 22.1856 18.8025C21.7725 19.194 21.2211 19.4059 20.6521 19.3917Z" fill="#4AA695"/>
</svg>
