<svg width="82" height="80" viewBox="0 0 82 80" fill="none" xmlns="http://www.w3.org/2000/svg">
<ellipse cx="40.75" cy="40" rx="40.5" ry="40" fill="#1D2939"/>
<path d="M52.01 26.1118C52.01 24.9472 51.0626 24 49.898 24H32.3621C31.1975 24 30.25 24.9471 30.25 26.1118V53.8944C30.25 55.0529 31.1974 56 32.3621 56H49.898C51.0626 56 52.01 55.0529 52.01 53.8944V26.1118ZM38.57 26.7839H43.6901C44.042 26.7839 44.33 27.0718 44.33 27.4238C44.33 27.7757 44.042 28.0637 43.6901 28.0637H38.57C38.218 28.0637 37.93 27.7757 37.93 27.4238C37.9298 27.0718 38.2177 26.7839 38.57 26.7839ZM43.1586 53.389H39.1011C38.7491 53.389 38.4612 53.1011 38.4612 52.7491C38.4612 52.3972 38.7491 52.1092 39.1011 52.1092H43.1586C43.5106 52.1092 43.7986 52.3972 43.7986 52.7491C43.7986 53.1011 43.5106 53.389 43.1586 53.389ZM50.7297 49.4979H31.5296V30.8415H50.7297V49.4979Z" fill="#7AD06D"/>
<path d="M42.334 39.2068H46.654C47.006 39.2068 47.2939 38.9253 47.2939 38.5669V34.2468C47.2939 33.8949 47.006 33.6069 46.654 33.6069H42.334C41.982 33.6069 41.6941 33.8949 41.6941 34.2468V38.5669C41.6938 38.9253 41.982 39.2068 42.334 39.2068Z" fill="#7AD06D"/>
<path d="M34.8126 46.7264H39.1327C39.4846 46.7264 39.7726 46.4449 39.7726 46.0865V41.7665C39.7726 41.4145 39.4846 41.1266 39.1327 41.1266H34.8126C34.4607 41.1266 34.1727 41.4145 34.1727 41.7665V46.0865C34.1727 46.4449 34.4607 46.7264 34.8126 46.7264Z" fill="#7AD06D"/>
<path d="M34.8126 39.2068H39.1327C39.4846 39.2068 39.7726 38.9253 39.7726 38.5669V34.2468C39.7726 33.8949 39.4846 33.6069 39.1327 33.6069H34.8126C34.4607 33.6069 34.1727 33.8949 34.1727 34.2468V38.5669C34.1727 38.9253 34.4607 39.2068 34.8126 39.2068Z" fill="#7AD06D"/>
<path d="M42.334 46.7264H46.654C47.006 46.7264 47.2939 46.4449 47.2939 46.0865V41.7665C47.2939 41.4145 47.006 41.1266 46.654 41.1266H42.334C41.982 41.1266 41.6941 41.4145 41.6941 41.7665V46.0865C41.6938 46.4449 41.982 46.7264 42.334 46.7264Z" fill="#7AD06D"/>
</svg>
