<svg width="28" height="28" viewBox="0 0 28 28" fill="none" xmlns="http://www.w3.org/2000/svg">
<g clip-path="url(#clip0_1_28834)">
<path d="M14.849 2.5498H10.0554C9.51357 2.5498 9.07031 2.99307 9.07031 3.53486V20.4775C9.07031 21.0193 9.51357 21.4625 10.0554 21.4625H14.849C15.3908 21.4625 15.8341 21.0194 15.8341 20.4775V3.53494C15.8341 2.99315 15.3908 2.5498 14.849 2.5498ZM12.4521 19.9417C11.3993 19.9417 10.5426 19.0851 10.5426 18.0322C10.5426 16.9794 11.3992 16.1227 12.4521 16.1227C13.505 16.1227 14.3618 16.9793 14.3618 18.0322C14.3618 19.0851 13.505 19.9417 12.4521 19.9417ZM14.9476 11.6779C14.9476 12.0392 14.6521 12.3346 14.2909 12.3346H10.6136C10.2524 12.3346 9.95692 12.0392 9.95692 11.6779V4.89206C9.95692 4.53089 10.2524 4.23539 10.6136 4.23539H14.2909C14.6521 4.23539 14.9476 4.53089 14.9476 4.89206V11.6779Z" fill="#4AA695"/>
<path d="M6.8725 2.5498H2.0788C1.53701 2.5498 1.09375 2.99307 1.09375 3.53486V20.4775C1.09375 21.0193 1.53701 21.4625 2.0788 21.4625H6.8725C7.41429 21.4625 7.85747 21.0194 7.85747 20.4775V3.53494C7.85747 2.99315 7.41429 2.5498 6.8725 2.5498ZM4.47557 19.9417C3.42274 19.9417 2.566 19.0851 2.566 18.0322C2.566 16.9794 3.42266 16.1227 4.47557 16.1227C5.52856 16.1227 6.38522 16.9793 6.38522 18.0322C6.38514 19.0851 5.52856 19.9417 4.47557 19.9417ZM6.97095 11.6779C6.97095 12.0392 6.67544 12.3346 6.3142 12.3346H2.63695C2.27578 12.3346 1.98027 12.0392 1.98027 11.6779V4.89206C1.98027 4.53089 2.27578 4.23539 2.63695 4.23539H6.3142C6.67544 4.23539 6.97095 4.53089 6.97095 4.89206V11.6779Z" fill="#4AA695"/>
<path d="M27.2157 24.4578C27.2157 24.8605 26.8862 25.19 26.4835 25.19H0.733725C0.330982 25.19 0.00146484 24.8605 0.00146484 24.4578V23.8158C0.00146484 23.413 0.330982 23.0835 0.733725 23.0835H26.4835C26.8862 23.0835 27.2157 23.413 27.2157 23.8158V24.4578Z" fill="#4AA695"/>
<g clip-path="url(#clip1_1_28834)">
<path d="M17.3747 14.1655H22.904C24.5743 14.1655 24.8987 11.879 24.9123 11.7774L25.6938 6.12516C25.7385 5.80166 26.0367 5.57596 26.3606 5.62031C26.6842 5.66506 26.9101 5.96357 26.8655 6.28715L26.0847 11.9335C25.9334 13.113 25.0754 15.342 22.9126 15.3478C22.831 15.8245 22.4159 16.1888 21.9163 16.1888H21.4736V18.4692H22.9229C23.6582 18.4692 24.2564 19.0674 24.2564 19.8026V20.0252C24.2564 20.3518 23.9917 20.6167 23.665 20.6167C23.3383 20.6167 23.0736 20.3519 23.0736 20.0252V19.8026C23.0736 19.7196 23.006 19.652 22.9228 19.652H21.4736V20.0377C21.4736 20.3643 21.2088 20.6291 20.8821 20.6291C20.5554 20.6291 20.2907 20.3644 20.2907 20.0377V19.652H18.8414C18.7583 19.652 18.6907 19.7196 18.6907 19.8027V20.0253C18.6907 20.3519 18.4259 20.6168 18.0993 20.6168C17.7725 20.6168 17.5077 20.352 17.5077 20.0253V19.8027C17.5077 19.0675 18.106 18.4693 18.8412 18.4693H20.2905V16.1889H19.8478C19.3483 16.1889 18.9334 15.8247 18.8518 15.3481H17.3745C17.0478 15.3481 16.783 15.0834 16.783 14.7567C16.783 14.43 17.0481 14.1655 17.3747 14.1655Z" fill="#4AA695"/>
</g>
</g>
<defs>
<clipPath id="clip0_1_28834">
<rect width="27.2143" height="27.2143" fill="white"/>
</clipPath>
<clipPath id="clip1_1_28834">
<rect width="15.0144" height="15.0144" fill="white" transform="matrix(-1 0 0 1 29.3345 5.61377)"/>
</clipPath>
</defs>
</svg>
