<svg width="25" height="16" viewBox="0 0 25 16" fill="none" xmlns="http://www.w3.org/2000/svg">
<path d="M23.2845 0.785238H20.0435H19.6383V-2.96528C19.6383 -3.65571 19.0942 -4.21545 18.4229 -4.21545H1.40741C0.73619 -4.21545 0.192017 -3.65571 0.192017 -2.96528V9.53645C0.192017 10.2269 0.73619 10.7866 1.40741 10.7866H5.0536V11.2033V14.5371C5.0536 15.2276 5.59777 15.7873 6.26899 15.7873H9.51005H9.51167H20.0435H23.2845C23.9558 15.7873 24.4999 15.2276 24.4999 14.5371V11.2033V5.36921V2.03541C24.4999 1.34498 23.9558 0.785238 23.2845 0.785238ZM18.9979 13.287H10.5561C10.1355 11.7629 8.96604 10.5606 7.48439 10.1279V6.44477C8.96596 6.01196 10.1348 4.80963 10.5556 3.28567H18.9978C19.4186 4.80963 20.5875 6.01196 22.0691 6.44477V10.1279C20.5876 10.5607 19.4187 11.763 18.9979 13.287ZM2.62281 8.28628V-1.71511H17.2076V0.785238H9.51005H6.26899C5.59777 0.785238 5.0536 1.34498 5.0536 2.03541V5.36921V8.28628H2.62281Z" fill="#4A1FB8"/>
</svg>
