<svg width="21" height="21" viewBox="0 0 21 21" fill="none" xmlns="http://www.w3.org/2000/svg">
<path d="M20.0873 5.10944H17.5326V3.405C17.5326 2.93399 17.1534 2.55478 16.6824 2.55478H15.8282V0.850344C15.8282 0.383321 15.449 0.00012207 14.978 0.00012207H6.45978C5.98877 0.00012207 5.60956 0.383321 5.60956 0.850344V2.55478H4.75934C4.28832 2.55478 3.90912 2.93798 3.90912 3.405V5.10944H1.35446C0.879451 5.10944 0.500244 5.49264 0.500244 5.95966V19.5832C0.500244 20.0542 0.879451 20.4374 1.35047 20.4374H13.2336C11.6689 18.9206 10.7189 16.7092 10.7189 14.4778V11.073C10.7189 9.79165 11.6769 8.70192 12.9502 8.53827C13.4372 8.47839 14.9101 8.28679 15.2694 8.09519C15.6685 7.81977 16.1675 7.66809 16.6824 7.66809C17.1973 7.66809 17.6963 7.81977 18.1194 8.11116C18.2032 8.16704 18.9936 8.68197 20.4106 8.86159C20.5942 8.88554 20.7699 8.93344 20.9375 8.99332V5.96365C20.9375 5.49264 20.5583 5.10944 20.0873 5.10944ZM7.31399 5.10944H5.60956V4.25922H7.31399V5.10944ZM12.4233 3.405V5.10944H9.01843V3.405C9.01843 2.93399 8.63922 2.55478 8.16821 2.55478H7.31799V1.70456H14.1317V2.55478H13.2735C12.8025 2.55478 12.4233 2.93798 12.4233 3.405ZM15.8282 5.10944H14.1238V4.25922H15.8282V5.10944Z" fill="#EE46BC"/>
</svg>
