<svg width="16" height="16" viewBox="0 0 3 4" fill="none" xmlns="http://www.w3.org/2000/svg">
<path d="M1.9787 1.0142C1.57116 0.962431 1.3274 0.814664 1.26245 0.770428C1.19469 0.72431 1.10433 0.72431 1.03657 0.770428C0.908567 0.857018 0.625269 0.899371 0.320325 0.93796C0.220559 0.951137 0.145264 1.03584 0.145264 1.13749V1.94032C0.145264 2.40057 0.371149 2.87586 0.720329 3.15069C0.829507 3.23634 0.945273 3.28152 1.04786 3.32105L1.0761 3.33234C1.09963 3.34175 1.1241 3.34646 1.14951 3.34646C1.17398 3.34646 1.19939 3.34175 1.22292 3.33234L1.25116 3.32105C1.35375 3.28152 1.46951 3.23634 1.57869 3.15069C1.91752 2.88434 2.15376 2.36951 2.15376 1.89891V1.21373C2.15376 1.11208 2.07846 1.02643 1.9787 1.0142Z" fill="#FAA7E0"/>
</svg>
